<svg data-v-423bf9ae="" xmlns="http://www.w3.org/2000/svg" viewBox="0 0 273 90" class="iconLeftSlogan"><!----><!----><!----><g data-v-423bf9ae="" id="6e531d57-fcea-43be-9c34-4997ea6904ce" fill="black" transform="matrix(4.516664981842041,0,0,4.516664981842041,103.85618591308594,-21.616134643554688)"><path d="M6.48 13.06C6.17 13.72 5.46 14.17 4.44 14.17C3.25 14.17 2.44 13.57 2.31 11.79C2.80 11.84 3.26 11.86 3.72 11.86C5.57 11.86 6.79 11.12 6.79 9.73C6.79 8.34 5.59 7.64 4.02 7.64C1.75 7.64 0.53 9.09 0.53 11.42C0.53 13.86 1.88 15.22 3.99 15.22C5.26 15.22 6.24 14.73 6.59 13.83C6.80 13.34 6.66 13.15 6.48 13.06ZM3.96 8.23C4.49 8.23 5.03 8.48 5.03 9.46C5.03 11.03 3.84 11.24 2.84 11.23C2.65 11.23 2.45 11.21 2.28 11.20C2.28 9.32 2.91 8.23 3.96 8.23ZM10.40 15.22C12.74 15.22 13.54 14.10 13.54 13.03C13.54 11.75 12.29 11.20 11.20 10.68C10.29 10.23 9.46 9.87 9.46 9.06C9.46 8.47 10.02 8.23 10.64 8.23C11.33 8.23 11.77 8.54 11.90 9.03C12.00 9.24 12.01 9.53 11.98 9.77C12.14 9.80 12.26 9.81 12.45 9.80C13.02 9.77 13.23 9.39 13.23 9.00C13.23 8.09 12.21 7.63 10.70 7.63C9.25 7.63 7.99 8.19 7.99 9.60C7.99 11.09 9.18 11.62 10.26 12.14C11.16 12.56 12.01 12.87 12.01 13.65C12.01 14.29 11.41 14.59 10.61 14.59C9.59 14.59 9.07 14.01 8.99 13.36C8.93 13.12 8.93 12.89 8.99 12.66C8.04 12.50 7.74 13.08 7.74 13.57C7.74 14.50 8.58 15.22 10.40 15.22ZM20.96 13.13L20.96 10.49C20.96 8.60 20.24 7.64 18.70 7.64C17.64 7.64 16.91 8.18 16.52 9.11L16.52 8.12C16.53 6.85 16.58 5.91 16.81 5.14C16.66 5.01 16.21 4.75 15.71 4.79C15.25 4.82 14.91 5.08 14.92 5.64L14.92 14.27C14.92 14.85 15.34 15.22 15.88 15.22C16.34 15.22 16.66 14.99 16.81 14.85C16.53 14.18 16.53 13.68 16.53 11.70C16.53 9.45 17.29 8.43 18.17 8.43C19.08 8.43 19.33 9.25 19.33 10.72L19.33 14.35C19.33 14.88 19.73 15.22 20.27 15.22C20.69 15.22 20.99 15.04 21.20 14.84C21 14.29 20.96 13.58 20.96 13.13ZM25.77 15.22C27.90 15.22 29.15 13.80 29.15 11.44C29.15 9.04 27.90 7.64 25.77 7.64C23.65 7.64 22.41 9.04 22.41 11.44C22.41 13.80 23.65 15.22 25.77 15.22ZM25.77 14.62C24.70 14.62 24.16 13.52 24.16 11.44C24.16 9.32 24.70 8.23 25.77 8.23C26.85 8.23 27.38 9.32 27.38 11.44C27.38 13.52 26.85 14.62 25.77 14.62ZM34.75 7.64C33.59 7.64 32.79 8.30 32.37 9.52C32.28 8.39 31.85 7.70 31.00 7.70C30.38 7.70 29.95 8.05 29.95 8.55C29.95 8.71 30.00 8.92 30.11 9.10C30.21 8.96 30.38 8.93 30.49 8.93C30.74 8.93 30.86 9.14 30.86 9.65L30.84 17.23C30.84 17.77 31.26 18.07 31.79 18.07C32.26 18.07 32.59 17.85 32.73 17.72C32.51 16.94 32.47 15.88 32.47 15.26L32.47 14.29C32.75 14.90 33.36 15.22 34.23 15.22C36.08 15.22 37.23 13.78 37.23 11.14C37.23 9.37 36.67 7.64 34.75 7.64ZM33.82 14.35C32.80 14.35 32.49 13.51 32.49 12.11C32.49 10.35 33.07 8.54 34.27 8.54C35.28 8.54 35.49 9.67 35.49 11.13C35.49 13.20 34.97 14.35 33.82 14.35Z"></path></g><!----><g data-v-423bf9ae="" id="72be4dbe-2557-4493-9e26-643784e65afa" transform="matrix(3.75,0,0,3.75,-1.500000238418579,0)" stroke="none" fill="black"><path d="M10 24H1a.5.5 0 0 1-.5-.5v-11a.5.5 0 0 1 1 0V23h8V12.5a.5.5 0 0 1 1 0v11a.5.5 0 0 1-.5.5z"></path><path d="M2.5 13H1a.5.5 0 0 1-.4-.8l1.5-2a.5.5 0 0 1 .801.6L2 12h.5a.5.5 0 0 1 0 1zM10 13H8.5a.5.5 0 0 1 0-1H9l-.9-1.2a.5.5 0 0 1 .801-.6l1.5 2A.5.5 0 0 1 10 13zM7 13a.5.5 0 0 1-.5-.5V10a1.001 1.001 0 0 0-2 0v2.5a.5.5 0 0 1-1 0V10c0-1.103.897-2 2-2s2 .897 2 2v2.5a.5.5 0 0 1-.5.5zM18 15a.5.5 0 0 1-.5-.5V13a1.001 1.001 0 0 0-2 0v1.5a.5.5 0 0 1-1 0V13c0-1.103.897-2 2-2s2 .897 2 2v1.5a.5.5 0 0 1-.5.5z"></path><path d="M23 22H10a.5.5 0 0 1-.5-.5v-8a.5.5 0 0 1 .5-.5h3.5a.5.5 0 0 1 0 1h-3v7h12v-7h-3a.5.5 0 0 1 0-1H23a.5.5 0 0 1 .5.5v8a.5.5 0 0 1-.5.5zM21 12a.5.5 0 0 1-.5-.5V4h-11v4.5a.5.5 0 0 1-1 0v-5A.5.5 0 0 1 9 3h12a.5.5 0 0 1 .5.5v8a.5.5 0 0 1-.5.5z"></path><path d="M22 4H8a.5.5 0 0 1-.5-.5v-3A.5.5 0 0 1 8 0h14a.5.5 0 0 1 .5.5v3a.5.5 0 0 1-.5.5zM8.5 3h13V1h-13v2z"></path><path d="M15 10a.5.5 0 0 1-.5-.5v-9a.5.5 0 0 1 1 0v9a.5.5 0 0 1-.5.5z"></path><path d="M21 8H9a.5.5 0 0 1 0-1h12a.5.5 0 0 1 0 1zM15 12.5H9a.5.5 0 0 1 0-1h6a.5.5 0 0 1 0 1z"></path></g><!----><g data-v-423bf9ae="" id="1e216ae1-4803-40d2-a735-a068457ceab4" fill="black" transform="matrix(0.19586625695228577,0,0,0.19586625695228577,106.11292266845703,59.257667541503906)"><path d="M6.93 4.68C6.34 4.17 5.46 3.92 4.30 3.92L1.89 3.92L0.70 3.92L0.70 4.19C0.70 4.34 0.80 4.42 0.98 4.44L1.12 4.44C1.19 4.44 1.29 4.45 1.43 4.45C1.57 4.45 1.72 4.47 1.89 4.47L1.89 13.26C1.72 13.26 1.57 13.27 1.43 13.27C1.29 13.27 1.19 13.29 1.12 13.29L0.98 13.29C0.80 13.30 0.70 13.38 0.70 13.54L0.70 13.82L1.89 13.82L2.60 13.82L3.78 13.82L3.78 13.54C3.78 13.38 3.68 13.30 3.50 13.29L3.37 13.29C3.30 13.29 3.19 13.27 3.05 13.27C2.91 13.27 2.77 13.26 2.60 13.26L2.60 9.83L4.30 9.83C4.84 9.83 5.33 9.74 5.77 9.60C6.20 9.45 6.57 9.25 6.87 8.99C7.18 8.72 7.42 8.41 7.57 8.05C7.74 7.69 7.81 7.29 7.81 6.86C7.81 5.92 7.52 5.18 6.93 4.68ZM6.90 7.81C6.78 8.11 6.59 8.36 6.36 8.57C6.12 8.78 5.82 8.95 5.47 9.07C5.12 9.20 4.73 9.25 4.30 9.25L2.60 9.25L2.60 4.48L4.30 4.48C5.22 4.48 5.92 4.69 6.40 5.10C6.86 5.50 7.10 6.09 7.10 6.85C7.10 7.20 7.03 7.52 6.90 7.81ZM24.00 13.29L23.90 13.29L23.72 13.29C23.63 13.29 23.55 13.27 23.46 13.27L20.50 9.53C20.41 9.42 20.30 9.32 20.19 9.25C20.62 9.21 21.01 9.11 21.36 8.96C21.71 8.81 21.99 8.61 22.25 8.37C22.48 8.13 22.68 7.85 22.81 7.55C22.93 7.24 23.00 6.89 23.00 6.51C23.00 5.66 22.72 5.03 22.16 4.58C21.60 4.14 20.75 3.92 19.60 3.92L17.19 3.92L16.02 3.92L16.02 4.19C16.02 4.34 16.10 4.42 16.28 4.44L16.42 4.44C16.49 4.44 16.59 4.45 16.73 4.45C16.87 4.45 17.02 4.47 17.19 4.47L17.19 13.26C17.02 13.26 16.87 13.27 16.73 13.27C16.59 13.27 16.49 13.29 16.42 13.29L16.28 13.29C16.10 13.30 16.00 13.38 16.00 13.54L16.00 13.82L17.19 13.82L17.91 13.82L19.08 13.82L19.08 13.54C19.08 13.38 18.98 13.30 18.80 13.29L18.66 13.29C18.59 13.29 18.49 13.27 18.35 13.27C18.21 13.27 18.07 13.26 17.91 13.26L17.91 9.34L19.08 9.34C19.28 9.34 19.42 9.35 19.50 9.39C19.59 9.44 19.67 9.52 19.75 9.62L22.93 13.64C22.99 13.71 23.03 13.75 23.09 13.78C23.14 13.80 23.21 13.82 23.28 13.82L23.35 13.82L23.90 13.82L24.26 13.82L24.26 13.54C24.26 13.38 24.18 13.30 24.00 13.29ZM19.50 8.81L17.91 8.81L17.91 4.48L19.60 4.48C20.48 4.48 21.15 4.66 21.62 5.00C22.08 5.33 22.30 5.87 22.30 6.57C22.30 6.92 22.25 7.21 22.12 7.49C21.99 7.77 21.80 7.99 21.56 8.19C21.32 8.39 21.03 8.55 20.68 8.65C20.33 8.75 19.94 8.81 19.50 8.81ZM41.43 8.86C41.43 8.11 41.30 7.41 41.08 6.79C40.85 6.17 40.53 5.64 40.11 5.19C39.69 4.75 39.20 4.40 38.63 4.16C38.05 3.92 37.39 3.79 36.69 3.79C35.99 3.79 35.36 3.92 34.79 4.16C34.22 4.40 33.71 4.75 33.29 5.19C32.87 5.64 32.55 6.17 32.33 6.79C32.10 7.41 31.98 8.11 31.98 8.86C31.98 9.63 32.10 10.33 32.33 10.95C32.55 11.56 32.87 12.10 33.29 12.54C33.71 12.99 34.22 13.33 34.79 13.57C35.36 13.80 35.99 13.93 36.69 13.93C37.39 13.93 38.05 13.80 38.63 13.57C39.20 13.33 39.69 12.99 40.11 12.54C40.53 12.10 40.85 11.56 41.08 10.95C41.30 10.33 41.43 9.63 41.43 8.86ZM40.67 8.86C40.67 9.56 40.59 10.18 40.39 10.72C40.19 11.27 39.93 11.75 39.58 12.12C39.23 12.50 38.81 12.81 38.32 13.01C37.83 13.20 37.30 13.30 36.69 13.30C36.11 13.30 35.57 13.20 35.08 13.01C34.59 12.81 34.17 12.50 33.82 12.12C33.47 11.75 33.19 11.27 33.00 10.72C32.80 10.18 32.72 9.56 32.72 8.86C32.72 8.18 32.80 7.55 33.00 7.00C33.19 6.45 33.47 5.98 33.82 5.60C34.17 5.22 34.59 4.91 35.08 4.72C35.57 4.52 36.11 4.41 36.69 4.41C37.30 4.41 37.83 4.52 38.32 4.72C38.81 4.91 39.23 5.22 39.58 5.60C39.93 5.98 40.19 6.45 40.39 7.00C40.59 7.55 40.67 8.18 40.67 8.86ZM58.70 6.80C58.48 6.19 58.16 5.68 57.74 5.25C57.32 4.82 56.83 4.48 56.25 4.26C55.68 4.03 55.02 3.92 54.32 3.92L50.89 3.92L49.70 3.92L49.70 4.19C49.70 4.34 49.80 4.42 49.98 4.44L50.12 4.44C50.19 4.44 50.29 4.45 50.43 4.45C50.57 4.45 50.72 4.47 50.89 4.47L50.89 13.26C50.72 13.26 50.57 13.27 50.43 13.27C50.29 13.27 50.19 13.29 50.12 13.29L49.98 13.29C49.80 13.30 49.70 13.38 49.70 13.54L49.70 13.82L50.89 13.82L54.32 13.82C55.02 13.82 55.68 13.71 56.25 13.48C56.83 13.26 57.32 12.92 57.74 12.49C58.16 12.05 58.48 11.54 58.70 10.92C58.93 10.30 59.05 9.63 59.05 8.86C59.05 8.11 58.93 7.42 58.70 6.80ZM58.02 10.72C57.82 11.27 57.57 11.72 57.22 12.10C56.87 12.47 56.45 12.75 55.96 12.95C55.47 13.15 54.92 13.24 54.32 13.24L51.60 13.24L51.60 4.49L54.32 4.49C54.92 4.49 55.47 4.59 55.96 4.79C56.45 4.98 56.87 5.26 57.22 5.64C57.57 6.02 57.82 6.47 58.02 7.01C58.21 7.56 58.31 8.18 58.31 8.86C58.31 9.56 58.21 10.18 58.02 10.72ZM75.66 3.92L74.94 3.92L73.58 3.92L73.58 4.19C73.58 4.34 73.68 4.42 73.86 4.44L74.03 4.44C74.13 4.44 74.27 4.45 74.44 4.45C74.61 4.45 74.77 4.47 74.94 4.47L74.94 10.04C74.94 10.50 74.87 10.92 74.73 11.33C74.59 11.73 74.40 12.08 74.13 12.38C73.86 12.67 73.56 12.89 73.18 13.06C72.80 13.23 72.38 13.31 71.90 13.31C71.43 13.31 70.99 13.23 70.62 13.06C70.24 12.89 69.92 12.66 69.66 12.36C69.40 12.07 69.22 11.72 69.08 11.33C68.94 10.93 68.87 10.50 68.87 10.04L68.87 4.47C69.03 4.47 69.20 4.45 69.37 4.45C69.54 4.45 69.68 4.44 69.78 4.44L69.94 4.44C70.13 4.42 70.22 4.34 70.22 4.19L70.22 3.92L68.87 3.92L68.15 3.92L66.98 3.92L66.98 4.19C66.98 4.34 67.06 4.42 67.24 4.44L67.38 4.44C67.45 4.44 67.55 4.45 67.69 4.45C67.83 4.45 67.98 4.47 68.15 4.47L68.15 10.04C68.15 10.58 68.24 11.09 68.40 11.56C68.57 12.04 68.82 12.46 69.15 12.81C69.47 13.16 69.87 13.44 70.34 13.64C70.80 13.83 71.33 13.93 71.90 13.93C72.48 13.93 73.00 13.83 73.46 13.64C73.92 13.44 74.33 13.16 74.65 12.81C74.97 12.46 75.22 12.04 75.39 11.56C75.56 11.09 75.66 10.58 75.66 10.04L75.66 4.47C75.82 4.47 75.96 4.45 76.10 4.45C76.24 4.45 76.36 4.44 76.43 4.44L76.55 4.44C76.73 4.42 76.83 4.34 76.83 4.19L76.83 3.92ZM92.58 12.21C92.55 12.18 92.51 12.15 92.47 12.15C92.44 12.15 92.43 12.15 92.40 12.17C92.39 12.18 92.36 12.21 92.33 12.22C92.13 12.40 91.92 12.56 91.73 12.70C91.53 12.84 91.32 12.94 91.08 13.03C90.85 13.13 90.59 13.20 90.31 13.24C90.03 13.29 89.73 13.31 89.38 13.31C88.82 13.31 88.27 13.22 87.79 13.01C87.30 12.81 86.90 12.52 86.55 12.14C86.20 11.76 85.90 11.28 85.71 10.74C85.51 10.19 85.41 9.56 85.41 8.86C85.41 8.18 85.51 7.56 85.71 7.01C85.92 6.47 86.20 6.01 86.56 5.61C86.93 5.24 87.36 4.94 87.86 4.73C88.37 4.52 88.91 4.42 89.52 4.42C90.41 4.42 91.24 4.56 91.97 4.89C92.01 5.78 92.05 6.30 92.05 6.41C92.06 6.64 92.15 6.75 92.34 6.75L92.68 6.75L92.68 4.51C91.50 4.03 90.44 3.81 89.52 3.81C88.80 3.81 88.16 3.92 87.56 4.17C86.97 4.42 86.44 4.76 86.02 5.21C85.58 5.66 85.26 6.19 85.02 6.80C84.78 7.42 84.67 8.11 84.67 8.86C84.67 9.63 84.80 10.32 85.02 10.95C85.25 11.58 85.57 12.10 85.97 12.54C86.38 12.99 86.87 13.33 87.44 13.57C88.02 13.80 88.63 13.93 89.32 13.93C89.73 13.93 90.10 13.90 90.45 13.83C90.79 13.76 91.11 13.66 91.41 13.54C91.69 13.41 91.95 13.26 92.19 13.09C92.43 12.91 92.65 12.73 92.86 12.50ZM109.02 3.92L108.82 3.92L101.53 3.92L101.32 3.92L101.22 3.92L101.22 5.96L101.57 5.96C101.77 5.96 101.85 5.85 101.86 5.63C101.86 5.53 101.89 5.17 101.92 4.52L104.82 4.52L104.82 13.26C104.65 13.26 104.51 13.27 104.37 13.27C104.23 13.27 104.12 13.29 104.05 13.29L103.92 13.29C103.74 13.30 103.64 13.38 103.64 13.54L103.64 13.82L104.82 13.82L105.53 13.82L106.72 13.82L106.72 13.54C106.72 13.38 106.62 13.30 106.44 13.29L106.30 13.29C106.23 13.29 106.13 13.27 105.99 13.27C105.85 13.27 105.70 13.26 105.53 13.26L105.53 4.52L108.42 4.52C108.46 5.24 108.47 5.60 108.47 5.63C108.49 5.85 108.58 5.96 108.78 5.96L109.12 5.96L109.12 3.92ZM122.95 9.91C122.81 9.65 122.61 9.39 122.37 9.21C122.14 9.03 121.88 8.88 121.59 8.75C121.30 8.62 120.97 8.51 120.67 8.41C120.36 8.32 120.05 8.20 119.76 8.11C119.46 7.99 119.20 7.87 118.96 7.71C118.72 7.56 118.54 7.38 118.40 7.15C118.26 6.93 118.17 6.65 118.17 6.31C118.17 6.06 118.23 5.82 118.33 5.59C118.43 5.35 118.57 5.15 118.75 4.97C118.93 4.79 119.15 4.65 119.43 4.55C119.71 4.45 120.02 4.40 120.39 4.40C121.06 4.40 121.67 4.51 122.23 4.75C122.28 5.54 122.30 5.99 122.30 6.06C122.32 6.29 122.40 6.41 122.60 6.41L122.93 6.41L122.93 4.38C122.05 4.00 121.21 3.81 120.39 3.81C119.92 3.81 119.52 3.88 119.15 4.02C118.79 4.16 118.50 4.34 118.26 4.58C118.02 4.82 117.82 5.08 117.70 5.39C117.57 5.70 117.52 6.02 117.52 6.36C117.52 6.78 117.59 7.14 117.73 7.42C117.87 7.70 118.06 7.92 118.30 8.12C118.54 8.32 118.79 8.46 119.08 8.58C119.38 8.71 119.70 8.82 120.01 8.92C120.32 9.02 120.61 9.11 120.92 9.21C121.21 9.31 121.48 9.45 121.72 9.60C121.95 9.76 122.14 9.94 122.28 10.16C122.42 10.39 122.49 10.68 122.49 11.03C122.49 11.35 122.43 11.66 122.32 11.94C122.21 12.22 122.05 12.46 121.84 12.67C121.63 12.88 121.37 13.05 121.06 13.16C120.75 13.29 120.40 13.33 120.01 13.33C119.22 13.33 118.57 13.20 118.03 12.95C118.02 12.75 118.02 12.54 118.01 12.32C117.99 12.10 117.99 11.91 117.98 11.76C117.96 11.61 117.96 11.52 117.96 11.51C117.95 11.28 117.85 11.17 117.66 11.17L117.32 11.17L117.32 13.02L117.32 13.20L117.32 13.38C118.17 13.75 119.06 13.93 119.98 13.93C120.48 13.93 120.93 13.85 121.32 13.69C121.72 13.54 122.05 13.31 122.32 13.05C122.58 12.78 122.81 12.46 122.95 12.10C123.09 11.73 123.16 11.34 123.16 10.92C123.16 10.51 123.09 10.18 122.95 9.91ZM151.09 13.22L150.63 13.17L146.85 3.91L146.13 3.91L142.34 13.17L141.89 13.22C141.71 13.23 141.62 13.33 141.62 13.50L141.62 13.82L142.07 13.82L142.37 13.82L142.62 13.82L142.72 13.82L144.03 13.82L144.03 13.50C144.03 13.31 143.92 13.23 143.71 13.22C143.70 13.22 143.67 13.20 143.63 13.20C143.58 13.20 143.53 13.19 143.43 13.19C143.33 13.19 143.21 13.19 143.07 13.17L144.05 10.75L144.12 10.57L148.85 10.57L148.92 10.75L149.90 13.17C149.76 13.19 149.65 13.19 149.55 13.19C149.45 13.19 149.38 13.20 149.34 13.20C149.30 13.20 149.27 13.22 149.25 13.22C149.04 13.23 148.93 13.31 148.93 13.50L148.93 13.82L150.25 13.82L150.35 13.82L150.61 13.82L150.89 13.82L151.35 13.82L151.35 13.50C151.35 13.33 151.27 13.23 151.09 13.22ZM146.29 5.22C146.31 5.14 146.36 5.04 146.38 4.94C146.41 4.84 146.45 4.75 146.48 4.63C146.51 4.75 146.55 4.84 146.58 4.94C146.61 5.04 146.65 5.12 146.68 5.21L148.64 10.04L144.34 10.04ZM168.42 3.92L167.79 3.92L166.57 3.92L166.57 4.19C166.57 4.34 166.67 4.42 166.85 4.44L166.99 4.44C167.06 4.44 167.17 4.45 167.31 4.45C167.45 4.45 167.62 4.47 167.79 4.47L167.79 12.22C167.79 12.35 167.79 12.49 167.80 12.63L161.39 4.05C161.35 3.99 161.32 3.95 161.28 3.93C161.24 3.92 161.20 3.91 161.13 3.91L160.78 3.91L159.59 3.91L159.59 4.19C159.59 4.34 159.68 4.42 159.87 4.44L160.01 4.44C160.08 4.44 160.17 4.45 160.31 4.45C160.45 4.45 160.61 4.47 160.78 4.47L160.78 13.26C160.61 13.26 160.45 13.27 160.31 13.27C160.17 13.27 160.08 13.29 160.01 13.29L159.87 13.29C159.68 13.30 159.59 13.38 159.59 13.54L159.59 13.82L160.78 13.82L161.39 13.82L162.61 13.82L162.61 13.54C162.61 13.38 162.51 13.30 162.33 13.29L162.19 13.29C162.12 13.29 161.99 13.27 161.85 13.27C161.71 13.27 161.56 13.26 161.39 13.26L161.39 5.49C161.39 5.36 161.39 5.22 161.38 5.08L167.82 13.68C167.89 13.78 167.96 13.82 168.07 13.82L168.42 13.82L168.42 4.47C168.59 4.47 168.73 4.45 168.87 4.45C169.01 4.45 169.12 4.44 169.19 4.44L169.32 4.44C169.50 4.42 169.60 4.34 169.60 4.19L169.60 3.92ZM186.63 6.80C186.41 6.19 186.09 5.68 185.67 5.25C185.25 4.82 184.76 4.48 184.18 4.26C183.61 4.03 182.95 3.92 182.25 3.92L178.82 3.92L177.63 3.92L177.63 4.19C177.63 4.34 177.73 4.42 177.91 4.44L178.05 4.44C178.12 4.44 178.22 4.45 178.36 4.45C178.50 4.45 178.65 4.47 178.82 4.47L178.82 13.26C178.65 13.26 178.50 13.27 178.36 13.27C178.22 13.27 178.12 13.29 178.05 13.29L177.91 13.29C177.73 13.30 177.63 13.38 177.63 13.54L177.63 13.82L178.82 13.82L182.25 13.82C182.95 13.82 183.61 13.71 184.18 13.48C184.76 13.26 185.25 12.92 185.67 12.49C186.09 12.05 186.41 11.54 186.63 10.92C186.86 10.30 186.98 9.63 186.98 8.86C186.98 8.11 186.86 7.42 186.63 6.80ZM185.95 10.72C185.75 11.27 185.50 11.72 185.15 12.10C184.80 12.47 184.38 12.75 183.89 12.95C183.40 13.15 182.85 13.24 182.25 13.24L179.54 13.24L179.54 4.49L182.25 4.49C182.85 4.49 183.40 4.59 183.89 4.79C184.38 4.98 184.80 5.26 185.15 5.64C185.50 6.02 185.75 6.47 185.95 7.01C186.14 7.56 186.24 8.18 186.24 8.86C186.24 9.56 186.14 10.18 185.95 10.72ZM211.37 9.91C211.23 9.65 211.04 9.39 210.80 9.21C210.56 9.03 210.31 8.88 210.01 8.75C209.72 8.62 209.40 8.51 209.09 8.41C208.78 8.32 208.47 8.20 208.18 8.11C207.89 7.99 207.62 7.87 207.38 7.71C207.14 7.56 206.96 7.38 206.82 7.15C206.68 6.93 206.60 6.65 206.60 6.31C206.60 6.06 206.65 5.82 206.75 5.59C206.85 5.35 206.99 5.15 207.17 4.97C207.35 4.79 207.58 4.65 207.86 4.55C208.14 4.45 208.45 4.40 208.81 4.40C209.48 4.40 210.10 4.51 210.66 4.75C210.70 5.54 210.73 5.99 210.73 6.06C210.74 6.29 210.83 6.41 211.02 6.41L211.36 6.41L211.36 4.38C210.48 4.00 209.64 3.81 208.81 3.81C208.35 3.81 207.94 3.88 207.58 4.02C207.21 4.16 206.92 4.34 206.68 4.58C206.44 4.82 206.25 5.08 206.12 5.39C206.00 5.70 205.94 6.02 205.94 6.36C205.94 6.78 206.01 7.14 206.15 7.42C206.29 7.70 206.49 7.92 206.72 8.12C206.96 8.32 207.21 8.46 207.51 8.58C207.80 8.71 208.12 8.82 208.43 8.92C208.74 9.02 209.03 9.11 209.34 9.21C209.64 9.31 209.90 9.45 210.14 9.60C210.38 9.76 210.56 9.94 210.70 10.16C210.84 10.39 210.91 10.68 210.91 11.03C210.91 11.35 210.85 11.66 210.74 11.94C210.63 12.22 210.48 12.46 210.27 12.67C210.06 12.88 209.79 13.05 209.48 13.16C209.17 13.29 208.82 13.33 208.43 13.33C207.65 13.33 206.99 13.20 206.46 12.95C206.44 12.75 206.44 12.54 206.43 12.32C206.42 12.10 206.42 11.91 206.40 11.76C206.39 11.61 206.39 11.52 206.39 11.51C206.37 11.28 206.28 11.17 206.08 11.17L205.74 11.17L205.74 13.02L205.74 13.20L205.74 13.38C206.60 13.75 207.48 13.93 208.40 13.93C208.91 13.93 209.36 13.85 209.75 13.69C210.14 13.54 210.48 13.31 210.74 13.05C211.01 12.78 211.23 12.46 211.37 12.10C211.51 11.73 211.58 11.34 211.58 10.92C211.58 10.51 211.51 10.18 211.37 9.91ZM229.57 4.44C229.75 4.42 229.85 4.34 229.85 4.19L229.85 3.92L228.68 3.92L227.95 3.92L226.77 3.92L226.77 4.19C226.77 4.34 226.87 4.42 227.05 4.44L227.18 4.44C227.25 4.44 227.36 4.45 227.50 4.45C227.64 4.45 227.78 4.47 227.95 4.47L227.95 8.53L221.75 8.53L221.75 4.47C221.91 4.47 222.07 4.45 222.21 4.45C222.35 4.45 222.45 4.44 222.52 4.44L222.66 4.44C222.84 4.42 222.92 4.34 222.92 4.19L222.92 3.92L221.75 3.92L221.03 3.92L219.84 3.92L219.84 4.19C219.84 4.34 219.94 4.42 220.12 4.44L220.26 4.44C220.33 4.44 220.43 4.45 220.57 4.45C220.71 4.45 220.86 4.47 221.03 4.47L221.03 13.26C220.86 13.26 220.71 13.27 220.57 13.27C220.43 13.27 220.33 13.29 220.26 13.29L220.12 13.29C219.94 13.30 219.84 13.38 219.84 13.54L219.84 13.82L221.03 13.82L221.75 13.82L222.92 13.82L222.92 13.54C222.92 13.38 222.84 13.30 222.66 13.29L222.52 13.29C222.45 13.29 222.35 13.27 222.21 13.27C222.07 13.27 221.91 13.26 221.75 13.26L221.75 9.07L227.95 9.07L227.95 13.26C227.78 13.26 227.64 13.27 227.50 13.27C227.36 13.27 227.25 13.29 227.18 13.29L227.05 13.29C226.87 13.30 226.77 13.38 226.77 13.54L226.77 13.82L227.95 13.82L228.68 13.82L229.85 13.82L229.85 13.54C229.85 13.38 229.75 13.30 229.57 13.29L229.45 13.29C229.38 13.29 229.26 13.27 229.12 13.27C228.98 13.27 228.84 13.26 228.68 13.26L228.68 4.47C228.84 4.47 228.98 4.45 229.12 4.45C229.26 4.45 229.38 4.44 229.45 4.44ZM247.46 8.86C247.46 8.11 247.34 7.41 247.11 6.79C246.89 6.17 246.57 5.64 246.15 5.19C245.73 4.75 245.24 4.40 244.66 4.16C244.09 3.92 243.43 3.79 242.73 3.79C242.03 3.79 241.40 3.92 240.83 4.16C240.25 4.40 239.75 4.75 239.33 5.19C238.91 5.64 238.59 6.17 238.36 6.79C238.14 7.41 238.01 8.11 238.01 8.86C238.01 9.63 238.14 10.33 238.36 10.95C238.59 11.56 238.91 12.10 239.33 12.54C239.75 12.99 240.25 13.33 240.83 13.57C241.40 13.80 242.03 13.93 242.73 13.93C243.43 13.93 244.09 13.80 244.66 13.57C245.24 13.33 245.73 12.99 246.15 12.54C246.57 12.10 246.89 11.56 247.11 10.95C247.34 10.33 247.46 9.63 247.46 8.86ZM246.71 8.86C246.71 9.56 246.62 10.18 246.43 10.72C246.23 11.27 245.97 11.75 245.62 12.12C245.27 12.50 244.85 12.81 244.36 13.01C243.87 13.20 243.33 13.30 242.73 13.30C242.14 13.30 241.61 13.20 241.12 13.01C240.63 12.81 240.21 12.50 239.86 12.12C239.51 11.75 239.23 11.27 239.04 10.72C238.84 10.18 238.76 9.56 238.76 8.86C238.76 8.18 238.84 7.55 239.04 7.00C239.23 6.45 239.51 5.98 239.86 5.60C240.21 5.22 240.63 4.91 241.12 4.72C241.61 4.52 242.14 4.41 242.73 4.41C243.33 4.41 243.87 4.52 244.36 4.72C244.85 4.91 245.27 5.22 245.62 5.60C245.97 5.98 246.23 6.45 246.43 7.00C246.62 7.55 246.71 8.18 246.71 8.86ZM261.97 4.68C261.38 4.17 260.50 3.92 259.34 3.92L256.93 3.92L255.74 3.92L255.74 4.19C255.74 4.34 255.84 4.42 256.02 4.44L256.16 4.44C256.23 4.44 256.33 4.45 256.47 4.45C256.61 4.45 256.76 4.47 256.93 4.47L256.93 13.26C256.76 13.26 256.61 13.27 256.47 13.27C256.33 13.27 256.23 13.29 256.16 13.29L256.02 13.29C255.84 13.30 255.74 13.38 255.74 13.54L255.74 13.82L256.93 13.82L257.64 13.82L258.82 13.82L258.82 13.54C258.82 13.38 258.72 13.30 258.54 13.29L258.41 13.29C258.34 13.29 258.23 13.27 258.09 13.27C257.95 13.27 257.81 13.26 257.64 13.26L257.64 9.83L259.34 9.83C259.88 9.83 260.37 9.74 260.81 9.60C261.24 9.45 261.60 9.25 261.91 8.99C262.22 8.72 262.46 8.41 262.61 8.05C262.78 7.69 262.85 7.29 262.85 6.86C262.85 5.92 262.56 5.18 261.97 4.68ZM261.94 7.81C261.81 8.11 261.63 8.36 261.39 8.57C261.16 8.78 260.86 8.95 260.51 9.07C260.16 9.20 259.77 9.25 259.34 9.25L257.64 9.25L257.64 4.48L259.34 4.48C260.26 4.48 260.96 4.69 261.44 5.10C261.90 5.50 262.14 6.09 262.14 6.85C262.14 7.20 262.07 7.52 261.94 7.81ZM277.27 4.68C276.68 4.17 275.80 3.92 274.64 3.92L272.23 3.92L271.04 3.92L271.04 4.19C271.04 4.34 271.14 4.42 271.32 4.44L271.46 4.44C271.53 4.44 271.63 4.45 271.77 4.45C271.91 4.45 272.06 4.47 272.23 4.47L272.23 13.26C272.06 13.26 271.91 13.27 271.77 13.27C271.63 13.27 271.53 13.29 271.46 13.29L271.32 13.29C271.14 13.30 271.04 13.38 271.04 13.54L271.04 13.82L272.23 13.82L272.94 13.82L274.12 13.82L274.12 13.54C274.12 13.38 274.02 13.30 273.84 13.29L273.71 13.29C273.64 13.29 273.53 13.27 273.39 13.27C273.25 13.27 273.11 13.26 272.94 13.26L272.94 9.83L274.64 9.83C275.18 9.83 275.67 9.74 276.11 9.60C276.54 9.45 276.91 9.25 277.21 8.99C277.52 8.72 277.76 8.41 277.91 8.05C278.08 7.69 278.15 7.29 278.15 6.86C278.15 5.92 277.86 5.18 277.27 4.68ZM277.24 7.81C277.12 8.11 276.93 8.36 276.70 8.57C276.46 8.78 276.16 8.95 275.81 9.07C275.46 9.20 275.07 9.25 274.64 9.25L272.94 9.25L272.94 4.48L274.64 4.48C275.56 4.48 276.26 4.69 276.74 5.10C277.20 5.50 277.44 6.09 277.44 6.85C277.44 7.20 277.37 7.52 277.24 7.81ZM289.16 4.44C289.34 4.42 289.42 4.34 289.42 4.19L289.42 3.91L288.25 3.91L287.53 3.91L286.34 3.91L286.34 4.19C286.34 4.34 286.44 4.42 286.62 4.44L286.76 4.44C286.83 4.44 286.93 4.45 287.07 4.45C287.21 4.45 287.36 4.47 287.53 4.47L287.53 13.26C287.36 13.26 287.21 13.27 287.07 13.27C286.93 13.27 286.83 13.29 286.76 13.29L286.62 13.29C286.44 13.30 286.34 13.38 286.34 13.54L286.34 13.82L287.53 13.82L288.25 13.82L289.42 13.82L289.42 13.54C289.42 13.38 289.34 13.30 289.16 13.29L289.02 13.29C288.95 13.29 288.85 13.27 288.71 13.27C288.57 13.27 288.41 13.26 288.25 13.26L288.25 4.47C288.41 4.47 288.57 4.45 288.71 4.45C288.85 4.45 288.95 4.44 289.02 4.44ZM306.60 3.92L305.97 3.92L304.75 3.92L304.75 4.19C304.75 4.34 304.85 4.42 305.03 4.44L305.17 4.44C305.24 4.44 305.35 4.45 305.49 4.45C305.63 4.45 305.80 4.47 305.97 4.47L305.97 12.22C305.97 12.35 305.97 12.49 305.98 12.63L299.57 4.05C299.53 3.99 299.50 3.95 299.46 3.93C299.42 3.92 299.38 3.91 299.31 3.91L298.96 3.91L297.77 3.91L297.77 4.19C297.77 4.34 297.86 4.42 298.05 4.44L298.19 4.44C298.26 4.44 298.35 4.45 298.49 4.45C298.63 4.45 298.79 4.47 298.96 4.47L298.96 13.26C298.79 13.26 298.63 13.27 298.49 13.27C298.35 13.27 298.26 13.29 298.19 13.29L298.05 13.29C297.86 13.30 297.77 13.38 297.77 13.54L297.77 13.82L298.96 13.82L299.57 13.82L300.79 13.82L300.79 13.54C300.79 13.38 300.69 13.30 300.51 13.29L300.37 13.29C300.30 13.29 300.17 13.27 300.03 13.27C299.89 13.27 299.74 13.26 299.57 13.26L299.57 5.49C299.57 5.36 299.57 5.22 299.56 5.08L306.00 13.68C306.07 13.78 306.14 13.82 306.25 13.82L306.60 13.82L306.60 4.47C306.77 4.47 306.91 4.45 307.05 4.45C307.19 4.45 307.30 4.44 307.37 4.44L307.50 4.44C307.68 4.42 307.78 4.34 307.78 4.19L307.78 3.92ZM321.45 9.32L321.45 9.72C321.45 9.76 321.48 9.80 321.51 9.83C321.54 9.86 321.58 9.87 321.64 9.87L323.54 9.87L323.54 12.54C323.32 12.67 323.09 12.78 322.88 12.88C322.67 12.98 322.43 13.08 322.20 13.15C321.96 13.22 321.69 13.27 321.41 13.30C321.13 13.33 320.82 13.34 320.49 13.34C319.87 13.34 319.31 13.24 318.81 13.03C318.30 12.82 317.87 12.53 317.51 12.15C317.14 11.77 316.86 11.30 316.67 10.74C316.47 10.18 316.36 9.56 316.36 8.86C316.36 8.18 316.47 7.56 316.67 7.01C316.86 6.47 317.14 5.99 317.51 5.61C317.87 5.24 318.32 4.94 318.84 4.73C319.35 4.52 319.93 4.42 320.57 4.42C321.75 4.42 322.69 4.58 323.37 4.90C323.41 5.81 323.44 6.31 323.44 6.41C323.46 6.64 323.55 6.75 323.75 6.75L324.09 6.75L324.09 4.51C323.65 4.31 323.09 4.14 322.39 4.00C321.69 3.86 321.10 3.81 320.60 3.81C319.84 3.81 319.16 3.92 318.54 4.16C317.93 4.40 317.41 4.75 316.97 5.18C316.54 5.61 316.22 6.15 315.98 6.78C315.74 7.39 315.63 8.09 315.63 8.86C315.63 9.63 315.74 10.32 315.98 10.95C316.22 11.58 316.54 12.10 316.96 12.54C317.38 12.99 317.90 13.33 318.49 13.57C319.07 13.80 319.72 13.93 320.43 13.93C320.85 13.93 321.23 13.90 321.58 13.86C321.93 13.80 322.25 13.73 322.56 13.65C322.87 13.55 323.15 13.44 323.41 13.30C323.68 13.16 323.93 13.01 324.18 12.84L324.18 9.32ZM350.69 12.21C350.66 12.18 350.62 12.15 350.57 12.15C350.55 12.15 350.53 12.15 350.50 12.17C350.49 12.18 350.46 12.21 350.43 12.22C350.24 12.40 350.03 12.56 349.83 12.70C349.64 12.84 349.43 12.94 349.19 13.03C348.95 13.13 348.70 13.20 348.42 13.24C348.14 13.29 347.83 13.31 347.48 13.31C346.92 13.31 346.37 13.22 345.90 13.01C345.41 12.81 345.00 12.52 344.65 12.14C344.30 11.76 344.01 11.28 343.81 10.74C343.62 10.19 343.52 9.56 343.52 8.86C343.52 8.18 343.62 7.56 343.81 7.01C344.02 6.47 344.30 6.01 344.67 5.61C345.03 5.24 345.46 4.94 345.97 4.73C346.47 4.52 347.02 4.42 347.62 4.42C348.52 4.42 349.34 4.56 350.07 4.89C350.11 5.78 350.15 6.30 350.15 6.41C350.17 6.64 350.25 6.75 350.45 6.75L350.78 6.75L350.78 4.51C349.61 4.03 348.54 3.81 347.62 3.81C346.91 3.81 346.26 3.92 345.66 4.17C345.07 4.42 344.54 4.76 344.12 5.21C343.69 5.66 343.36 6.19 343.13 6.80C342.89 7.42 342.78 8.11 342.78 8.86C342.78 9.63 342.90 10.32 343.13 10.95C343.35 11.58 343.67 12.10 344.08 12.54C344.48 12.99 344.97 13.33 345.55 13.57C346.12 13.80 346.74 13.93 347.42 13.93C347.83 13.93 348.21 13.90 348.56 13.83C348.89 13.76 349.22 13.66 349.51 13.54C349.79 13.41 350.06 13.26 350.29 13.09C350.53 12.91 350.76 12.73 350.97 12.50ZM368.27 13.22L367.81 13.17L364.03 3.91L363.31 3.91L359.52 13.17L359.07 13.22C358.89 13.23 358.81 13.33 358.81 13.50L358.81 13.82L359.25 13.82L359.55 13.82L359.80 13.82L359.90 13.82L361.21 13.82L361.21 13.50C361.21 13.31 361.10 13.23 360.89 13.22C360.88 13.22 360.85 13.20 360.81 13.20C360.77 13.20 360.71 13.19 360.61 13.19C360.51 13.19 360.39 13.19 360.25 13.17L361.23 10.75L361.30 10.57L366.03 10.57L366.10 10.75L367.08 13.17C366.94 13.19 366.83 13.19 366.73 13.19C366.63 13.19 366.56 13.20 366.52 13.20C366.48 13.20 366.45 13.22 366.44 13.22C366.23 13.23 366.11 13.31 366.11 13.50L366.11 13.82L367.43 13.82L367.53 13.82L367.79 13.82L368.07 13.82L368.54 13.82L368.54 13.50C368.54 13.33 368.45 13.23 368.27 13.22ZM363.47 5.22C363.50 5.14 363.54 5.04 363.57 4.94C363.59 4.84 363.64 4.75 363.66 4.63C363.69 4.75 363.73 4.84 363.76 4.94C363.79 5.04 363.83 5.12 363.86 5.21L365.82 10.04L361.52 10.04ZM384.76 13.29L384.66 13.29L384.48 13.29C384.40 13.29 384.31 13.27 384.23 13.27L381.26 9.53C381.18 9.42 381.07 9.32 380.95 9.25C381.39 9.21 381.78 9.11 382.13 8.96C382.48 8.81 382.76 8.61 383.01 8.37C383.25 8.13 383.45 7.85 383.57 7.55C383.70 7.24 383.77 6.89 383.77 6.51C383.77 5.66 383.49 5.03 382.93 4.58C382.37 4.14 381.51 3.92 380.37 3.92L377.96 3.92L376.78 3.92L376.78 4.19C376.78 4.34 376.87 4.42 377.05 4.44L377.19 4.44C377.26 4.44 377.36 4.45 377.50 4.45C377.64 4.45 377.79 4.47 377.96 4.47L377.96 13.26C377.79 13.26 377.64 13.27 377.50 13.27C377.36 13.27 377.26 13.29 377.19 13.29L377.05 13.29C376.87 13.30 376.77 13.38 376.77 13.54L376.77 13.82L377.96 13.82L378.67 13.82L379.85 13.82L379.85 13.54C379.85 13.38 379.75 13.30 379.57 13.29L379.43 13.29C379.36 13.29 379.26 13.27 379.12 13.27C378.98 13.27 378.84 13.26 378.67 13.26L378.67 9.34L379.85 9.34C380.04 9.34 380.18 9.35 380.27 9.39C380.35 9.44 380.44 9.52 380.52 9.62L383.70 13.64C383.75 13.71 383.80 13.75 383.85 13.78C383.91 13.80 383.98 13.82 384.05 13.82L384.12 13.82L384.66 13.82L385.03 13.82L385.03 13.54C385.03 13.38 384.94 13.30 384.76 13.29ZM380.27 8.81L378.67 8.81L378.67 4.48L380.37 4.48C381.25 4.48 381.92 4.66 382.38 5.00C382.84 5.33 383.07 5.87 383.07 6.57C383.07 6.92 383.01 7.21 382.89 7.49C382.76 7.77 382.56 7.99 382.33 8.19C382.09 8.39 381.79 8.55 381.44 8.65C381.09 8.75 380.70 8.81 380.27 8.81ZM400.44 3.92L400.25 3.92L392.95 3.92L392.74 3.92L392.64 3.92L392.64 5.96L392.99 5.96C393.19 5.96 393.27 5.85 393.29 5.63C393.29 5.53 393.32 5.17 393.34 4.52L396.24 4.52L396.24 13.26C396.07 13.26 395.93 13.27 395.79 13.27C395.65 13.27 395.54 13.29 395.47 13.29L395.35 13.29C395.16 13.30 395.07 13.38 395.07 13.54L395.07 13.82L396.24 13.82L396.96 13.82L398.15 13.82L398.15 13.54C398.15 13.38 398.05 13.30 397.87 13.29L397.73 13.29C397.66 13.29 397.56 13.27 397.42 13.27C397.28 13.27 397.12 13.26 396.96 13.26L396.96 4.52L399.84 4.52C399.88 5.24 399.90 5.60 399.90 5.63C399.91 5.85 400.01 5.96 400.20 5.96L400.54 5.96L400.54 3.92ZM414.37 9.91C414.23 9.65 414.04 9.39 413.80 9.21C413.56 9.03 413.31 8.88 413.01 8.75C412.72 8.62 412.40 8.51 412.09 8.41C411.78 8.32 411.47 8.20 411.18 8.11C410.89 7.99 410.62 7.87 410.38 7.71C410.14 7.56 409.96 7.38 409.82 7.15C409.68 6.93 409.60 6.65 409.60 6.31C409.60 6.06 409.65 5.82 409.75 5.59C409.85 5.35 409.99 5.15 410.17 4.97C410.35 4.79 410.58 4.65 410.86 4.55C411.14 4.45 411.45 4.40 411.81 4.40C412.48 4.40 413.10 4.51 413.66 4.75C413.70 5.54 413.73 5.99 413.73 6.06C413.74 6.29 413.83 6.41 414.02 6.41L414.36 6.41L414.36 4.38C413.48 4.00 412.64 3.81 411.81 3.81C411.35 3.81 410.94 3.88 410.58 4.02C410.21 4.16 409.92 4.34 409.68 4.58C409.44 4.82 409.25 5.08 409.12 5.39C409.00 5.70 408.94 6.02 408.94 6.36C408.94 6.78 409.01 7.14 409.15 7.42C409.29 7.70 409.49 7.92 409.72 8.12C409.96 8.32 410.21 8.46 410.51 8.58C410.80 8.71 411.12 8.82 411.43 8.92C411.74 9.02 412.03 9.11 412.34 9.21C412.64 9.31 412.90 9.45 413.14 9.60C413.38 9.76 413.56 9.94 413.70 10.16C413.84 10.39 413.91 10.68 413.91 11.03C413.91 11.35 413.85 11.66 413.74 11.94C413.63 12.22 413.48 12.46 413.27 12.67C413.06 12.88 412.79 13.05 412.48 13.16C412.17 13.29 411.82 13.33 411.43 13.33C410.65 13.33 409.99 13.20 409.46 12.95C409.44 12.75 409.44 12.54 409.43 12.32C409.42 12.10 409.42 11.91 409.40 11.76C409.39 11.61 409.39 11.52 409.39 11.51C409.37 11.28 409.28 11.17 409.08 11.17L408.74 11.17L408.74 13.02L408.74 13.20L408.74 13.38C409.60 13.75 410.48 13.93 411.40 13.93C411.91 13.93 412.36 13.85 412.75 13.69C413.14 13.54 413.48 13.31 413.74 13.05C414.01 12.78 414.23 12.46 414.37 12.10C414.51 11.73 414.58 11.34 414.58 10.92C414.58 10.51 414.51 10.18 414.37 9.91ZM442.51 13.22L442.05 13.17L438.27 3.91L437.56 3.91L433.76 13.17L433.31 13.22C433.13 13.23 433.05 13.33 433.05 13.50L433.05 13.82L433.50 13.82L433.79 13.82L434.04 13.82L434.14 13.82L435.46 13.82L435.46 13.50C435.46 13.31 435.34 13.23 435.13 13.22C435.12 13.22 435.09 13.20 435.05 13.20C435.01 13.20 434.95 13.19 434.85 13.19C434.76 13.19 434.63 13.19 434.49 13.17L435.47 10.75L435.54 10.57L440.27 10.57L440.34 10.75L441.32 13.17C441.18 13.19 441.07 13.19 440.97 13.19C440.87 13.19 440.80 13.20 440.76 13.20C440.72 13.20 440.69 13.22 440.68 13.22C440.47 13.23 440.36 13.31 440.36 13.50L440.36 13.82L441.67 13.82L441.77 13.82L442.04 13.82L442.32 13.82L442.78 13.82L442.78 13.50C442.78 13.33 442.69 13.23 442.51 13.22ZM437.71 5.22C437.74 5.14 437.78 5.04 437.81 4.94C437.84 4.84 437.88 4.75 437.91 4.63C437.93 4.75 437.98 4.84 438.00 4.94C438.03 5.04 438.07 5.12 438.10 5.21L440.06 10.04L435.76 10.04ZM459.00 13.29L458.91 13.29L458.72 13.29C458.64 13.29 458.56 13.27 458.47 13.27L455.50 9.53C455.42 9.42 455.31 9.32 455.20 9.25C455.63 9.21 456.02 9.11 456.37 8.96C456.72 8.81 457.00 8.61 457.25 8.37C457.49 8.13 457.69 7.85 457.81 7.55C457.94 7.24 458.01 6.89 458.01 6.51C458.01 5.66 457.73 5.03 457.17 4.58C456.61 4.14 455.76 3.92 454.61 3.92L452.20 3.92L451.02 3.92L451.02 4.19C451.02 4.34 451.11 4.42 451.29 4.44L451.43 4.44C451.50 4.44 451.60 4.45 451.74 4.45C451.88 4.45 452.03 4.47 452.20 4.47L452.20 13.26C452.03 13.26 451.88 13.27 451.74 13.27C451.60 13.27 451.50 13.29 451.43 13.29L451.29 13.29C451.11 13.30 451.01 13.38 451.01 13.54L451.01 13.82L452.20 13.82L452.91 13.82L454.09 13.82L454.09 13.54C454.09 13.38 453.99 13.30 453.81 13.29L453.67 13.29C453.60 13.29 453.50 13.27 453.36 13.27C453.22 13.27 453.08 13.26 452.91 13.26L452.91 9.34L454.09 9.34C454.29 9.34 454.43 9.35 454.51 9.39C454.59 9.44 454.68 9.52 454.76 9.62L457.94 13.64C458.00 13.71 458.04 13.75 458.09 13.78C458.15 13.80 458.22 13.82 458.29 13.82L458.36 13.82L458.91 13.82L459.27 13.82L459.27 13.54C459.27 13.38 459.19 13.30 459.00 13.29ZM454.51 8.81L452.91 8.81L452.91 4.48L454.61 4.48C455.49 4.48 456.16 4.66 456.62 5.00C457.09 5.33 457.31 5.87 457.31 6.57C457.31 6.92 457.25 7.21 457.13 7.49C457.00 7.77 456.81 7.99 456.57 8.19C456.33 8.39 456.04 8.55 455.69 8.65C455.34 8.75 454.94 8.81 454.51 8.81ZM468.66 3.92L467.47 3.92L467.47 4.19C467.47 4.34 467.57 4.42 467.75 4.44L467.89 4.44C467.96 4.44 468.06 4.45 468.20 4.45C468.34 4.45 468.50 4.47 468.66 4.47L468.66 13.26C468.50 13.26 468.34 13.27 468.20 13.27C468.06 13.27 467.96 13.29 467.89 13.29L467.75 13.29C467.57 13.30 467.49 13.38 467.49 13.54L467.49 13.82L468.66 13.82L474.60 13.82L474.60 13.22L474.60 11.76L474.25 11.76C474.05 11.76 473.97 11.89 473.96 12.11C473.96 12.14 473.94 12.19 473.94 12.29C473.94 12.39 473.94 12.53 473.93 12.74C473.91 12.95 473.90 13.09 473.90 13.22L469.38 13.22L469.38 9.09L473.33 9.09L473.33 8.51L469.38 8.51L469.38 4.51L473.90 4.51C473.93 5.12 473.96 5.50 473.96 5.63C473.97 5.85 474.05 5.96 474.25 5.96L474.60 5.96L474.60 4.51L474.60 3.92ZM502.82 8.86C502.82 8.11 502.70 7.41 502.47 6.79C502.25 6.17 501.93 5.64 501.51 5.19C501.09 4.75 500.60 4.40 500.02 4.16C499.45 3.92 498.79 3.79 498.09 3.79C497.39 3.79 496.76 3.92 496.19 4.16C495.61 4.40 495.11 4.75 494.69 5.19C494.27 5.64 493.95 6.17 493.72 6.79C493.50 7.41 493.37 8.11 493.37 8.86C493.37 9.63 493.50 10.33 493.72 10.95C493.95 11.56 494.27 12.10 494.69 12.54C495.11 12.99 495.61 13.33 496.19 13.57C496.76 13.80 497.39 13.93 498.09 13.93C498.79 13.93 499.45 13.80 500.02 13.57C500.60 13.33 501.09 12.99 501.51 12.54C501.93 12.10 502.25 11.56 502.47 10.95C502.70 10.33 502.82 9.63 502.82 8.86ZM502.07 8.86C502.07 9.56 501.98 10.18 501.79 10.72C501.59 11.27 501.33 11.75 500.98 12.12C500.63 12.50 500.21 12.81 499.72 13.01C499.23 13.20 498.69 13.30 498.09 13.30C497.50 13.30 496.97 13.20 496.48 13.01C495.99 12.81 495.57 12.50 495.22 12.12C494.87 11.75 494.59 11.27 494.40 10.72C494.20 10.18 494.12 9.56 494.12 8.86C494.12 8.18 494.20 7.55 494.40 7.00C494.59 6.45 494.87 5.98 495.22 5.60C495.57 5.22 495.99 4.91 496.48 4.72C496.97 4.52 497.50 4.41 498.09 4.41C498.69 4.41 499.23 4.52 499.72 4.72C500.21 4.91 500.63 5.22 500.98 5.60C501.33 5.98 501.59 6.45 501.79 7.00C501.98 7.55 502.07 8.18 502.07 8.86ZM519.06 3.92L518.35 3.92L516.99 3.92L516.99 4.19C516.99 4.34 517.09 4.42 517.27 4.44L517.44 4.44C517.54 4.44 517.68 4.45 517.85 4.45C518.01 4.45 518.18 4.47 518.35 4.47L518.35 10.04C518.35 10.50 518.28 10.92 518.14 11.33C518.00 11.73 517.80 12.08 517.54 12.38C517.27 12.67 516.96 12.89 516.59 13.06C516.21 13.23 515.79 13.31 515.31 13.31C514.84 13.31 514.40 13.23 514.02 13.06C513.65 12.89 513.32 12.66 513.07 12.36C512.81 12.07 512.62 11.72 512.48 11.33C512.34 10.93 512.27 10.50 512.27 10.04L512.27 4.47C512.44 4.47 512.61 4.45 512.78 4.45C512.95 4.45 513.09 4.44 513.18 4.44L513.35 4.44C513.53 4.42 513.63 4.34 513.63 4.19L513.63 3.92L512.27 3.92L511.56 3.92L510.38 3.92L510.38 4.19C510.38 4.34 510.47 4.42 510.65 4.44L510.79 4.44C510.86 4.44 510.96 4.45 511.10 4.45C511.24 4.45 511.39 4.47 511.56 4.47L511.56 10.04C511.56 10.58 511.64 11.09 511.81 11.56C511.98 12.04 512.23 12.46 512.55 12.81C512.88 13.16 513.28 13.44 513.74 13.64C514.21 13.83 514.74 13.93 515.31 13.93C515.89 13.93 516.40 13.83 516.87 13.64C517.33 13.44 517.73 13.16 518.06 12.81C518.38 12.46 518.63 12.04 518.80 11.56C518.97 11.09 519.06 10.58 519.06 10.04L519.06 4.47C519.23 4.47 519.37 4.45 519.51 4.45C519.65 4.45 519.76 4.44 519.83 4.44L519.96 4.44C520.14 4.42 520.24 4.34 520.24 4.19L520.24 3.92ZM536.26 13.29L536.16 13.29L535.98 13.29C535.89 13.29 535.81 13.27 535.72 13.27L532.76 9.53C532.67 9.42 532.56 9.32 532.45 9.25C532.88 9.21 533.27 9.11 533.62 8.96C533.97 8.81 534.25 8.61 534.51 8.37C534.74 8.13 534.94 7.85 535.07 7.55C535.19 7.24 535.26 6.89 535.26 6.51C535.26 5.66 534.98 5.03 534.42 4.58C533.86 4.14 533.01 3.92 531.86 3.92L529.45 3.92L528.28 3.92L528.28 4.19C528.28 4.34 528.36 4.42 528.54 4.44L528.68 4.44C528.75 4.44 528.85 4.45 528.99 4.45C529.13 4.45 529.28 4.47 529.45 4.47L529.45 13.26C529.28 13.26 529.13 13.27 528.99 13.27C528.85 13.27 528.75 13.29 528.68 13.29L528.54 13.29C528.36 13.30 528.26 13.38 528.26 13.54L528.26 13.82L529.45 13.82L530.17 13.82L531.34 13.82L531.34 13.54C531.34 13.38 531.24 13.30 531.06 13.29L530.92 13.29C530.85 13.29 530.75 13.27 530.61 13.27C530.47 13.27 530.33 13.26 530.17 13.26L530.17 9.34L531.34 9.34C531.54 9.34 531.68 9.35 531.76 9.39C531.85 9.44 531.93 9.52 532.01 9.62L535.19 13.64C535.25 13.71 535.29 13.75 535.35 13.78C535.40 13.80 535.47 13.82 535.54 13.82L535.61 13.82L536.16 13.82L536.52 13.82L536.52 13.54C536.52 13.38 536.44 13.30 536.26 13.29ZM531.76 8.81L530.17 8.81L530.17 4.48L531.86 4.48C532.74 4.48 533.41 4.66 533.88 5.00C534.34 5.33 534.56 5.87 534.56 6.57C534.56 6.92 534.51 7.21 534.38 7.49C534.25 7.77 534.06 7.99 533.82 8.19C533.58 8.39 533.29 8.55 532.94 8.65C532.59 8.75 532.20 8.81 531.76 8.81ZM562.21 9.52C561.79 9.11 561.19 8.86 560.41 8.75C560.73 8.67 561.01 8.55 561.26 8.40C561.51 8.25 561.74 8.08 561.90 7.87C562.07 7.66 562.21 7.43 562.30 7.20C562.38 6.96 562.44 6.71 562.44 6.44C562.44 6.05 562.35 5.68 562.23 5.38C562.10 5.07 561.89 4.80 561.62 4.58C561.36 4.37 561.02 4.20 560.60 4.09C560.18 3.98 559.69 3.92 559.13 3.92L556.29 3.92L555.10 3.92L555.10 4.19C555.10 4.34 555.20 4.42 555.38 4.44L555.52 4.44C555.59 4.44 555.69 4.45 555.83 4.45C555.97 4.45 556.12 4.47 556.29 4.47L556.29 13.26C556.12 13.26 555.97 13.27 555.83 13.27C555.69 13.27 555.59 13.29 555.52 13.29L555.38 13.29C555.20 13.30 555.11 13.38 555.11 13.54L555.11 13.82L556.29 13.82L559.50 13.82C560.03 13.82 560.49 13.76 560.91 13.64C561.33 13.51 561.68 13.34 561.96 13.10C562.24 12.87 562.46 12.59 562.62 12.25C562.77 11.91 562.84 11.54 562.84 11.12C562.84 10.46 562.63 9.93 562.21 9.52ZM557.00 4.48L559.13 4.48C560.01 4.48 560.67 4.66 561.09 5.00C561.51 5.35 561.72 5.84 561.72 6.51C561.72 6.76 561.68 7.03 561.58 7.27C561.48 7.50 561.33 7.71 561.12 7.91C560.91 8.11 560.64 8.26 560.32 8.37C560.00 8.48 559.61 8.55 559.15 8.55L557.00 8.55ZM561.46 12.68C561.01 13.06 560.35 13.24 559.48 13.24L557.00 13.24L557.00 9.07L559.50 9.07C559.92 9.07 560.28 9.11 560.60 9.21C560.92 9.31 561.20 9.45 561.43 9.62C561.65 9.80 561.82 10.00 561.95 10.25C562.06 10.50 562.13 10.79 562.13 11.10C562.13 11.79 561.90 12.31 561.46 12.68ZM579.35 3.92L578.63 3.92L577.28 3.92L577.28 4.19C577.28 4.34 577.37 4.42 577.56 4.44L577.72 4.44C577.82 4.44 577.96 4.45 578.13 4.45C578.30 4.45 578.47 4.47 578.63 4.47L578.63 10.04C578.63 10.50 578.56 10.92 578.42 11.33C578.28 11.73 578.09 12.08 577.82 12.38C577.56 12.67 577.25 12.89 576.87 13.06C576.49 13.23 576.07 13.31 575.60 13.31C575.12 13.31 574.69 13.23 574.31 13.06C573.93 12.89 573.61 12.66 573.36 12.36C573.09 12.07 572.91 11.72 572.77 11.33C572.63 10.93 572.56 10.50 572.56 10.04L572.56 4.47C572.73 4.47 572.89 4.45 573.06 4.45C573.23 4.45 573.37 4.44 573.47 4.44L573.64 4.44C573.82 4.42 573.92 4.34 573.92 4.19L573.92 3.92L572.56 3.92L571.84 3.92L570.67 3.92L570.67 4.19C570.67 4.34 570.75 4.42 570.93 4.44L571.07 4.44C571.14 4.44 571.24 4.45 571.38 4.45C571.52 4.45 571.68 4.47 571.84 4.47L571.84 10.04C571.84 10.58 571.93 11.09 572.10 11.56C572.26 12.04 572.52 12.46 572.84 12.81C573.16 13.16 573.57 13.44 574.03 13.64C574.49 13.83 575.02 13.93 575.60 13.93C576.17 13.93 576.69 13.83 577.15 13.64C577.61 13.44 578.02 13.16 578.34 12.81C578.66 12.46 578.91 12.04 579.08 11.56C579.25 11.09 579.35 10.58 579.35 10.04L579.35 4.47C579.52 4.47 579.66 4.45 579.80 4.45C579.94 4.45 580.05 4.44 580.12 4.44L580.24 4.44C580.43 4.42 580.52 4.34 580.52 4.19L580.52 3.92ZM594.27 9.91C594.13 9.65 593.94 9.39 593.70 9.21C593.46 9.03 593.21 8.88 592.91 8.75C592.62 8.62 592.30 8.51 591.99 8.41C591.68 8.32 591.37 8.20 591.08 8.11C590.79 7.99 590.52 7.87 590.28 7.71C590.04 7.56 589.86 7.38 589.72 7.15C589.58 6.93 589.50 6.65 589.50 6.31C589.50 6.06 589.55 5.82 589.65 5.59C589.75 5.35 589.89 5.15 590.07 4.97C590.25 4.79 590.48 4.65 590.76 4.55C591.04 4.45 591.35 4.40 591.71 4.40C592.38 4.40 593.00 4.51 593.56 4.75C593.60 5.54 593.63 5.99 593.63 6.06C593.64 6.29 593.73 6.41 593.92 6.41L594.26 6.41L594.26 4.38C593.38 4.00 592.54 3.81 591.71 3.81C591.25 3.81 590.84 3.88 590.48 4.02C590.11 4.16 589.82 4.34 589.58 4.58C589.34 4.82 589.15 5.08 589.02 5.39C588.90 5.70 588.84 6.02 588.84 6.36C588.84 6.78 588.91 7.14 589.05 7.42C589.19 7.70 589.39 7.92 589.62 8.12C589.86 8.32 590.11 8.46 590.41 8.58C590.70 8.71 591.02 8.82 591.33 8.92C591.64 9.02 591.93 9.11 592.24 9.21C592.54 9.31 592.80 9.45 593.04 9.60C593.28 9.76 593.46 9.94 593.60 10.16C593.74 10.39 593.81 10.68 593.81 11.03C593.81 11.35 593.75 11.66 593.64 11.94C593.53 12.22 593.38 12.46 593.17 12.67C592.96 12.88 592.69 13.05 592.38 13.16C592.07 13.29 591.72 13.33 591.33 13.33C590.55 13.33 589.89 13.20 589.36 12.95C589.34 12.75 589.34 12.54 589.33 12.32C589.32 12.10 589.32 11.91 589.30 11.76C589.29 11.61 589.29 11.52 589.29 11.51C589.27 11.28 589.18 11.17 588.98 11.17L588.64 11.17L588.64 13.02L588.64 13.20L588.64 13.38C589.50 13.75 590.38 13.93 591.30 13.93C591.81 13.93 592.26 13.85 592.65 13.69C593.04 13.54 593.38 13.31 593.64 13.05C593.91 12.78 594.13 12.46 594.27 12.10C594.41 11.73 594.48 11.34 594.48 10.92C594.48 10.51 594.41 10.18 594.27 9.91ZM605.56 4.44C605.74 4.42 605.82 4.34 605.82 4.19L605.82 3.91L604.65 3.91L603.93 3.91L602.74 3.91L602.74 4.19C602.74 4.34 602.84 4.42 603.02 4.44L603.16 4.44C603.23 4.44 603.33 4.45 603.47 4.45C603.61 4.45 603.76 4.47 603.93 4.47L603.93 13.26C603.76 13.26 603.61 13.27 603.47 13.27C603.33 13.27 603.23 13.29 603.16 13.29L603.02 13.29C602.84 13.30 602.74 13.38 602.74 13.54L602.74 13.82L603.93 13.82L604.65 13.82L605.82 13.82L605.82 13.54C605.82 13.38 605.74 13.30 605.56 13.29L605.42 13.29C605.35 13.29 605.25 13.27 605.11 13.27C604.97 13.27 604.81 13.26 604.65 13.26L604.65 4.47C604.81 4.47 604.97 4.45 605.11 4.45C605.25 4.45 605.35 4.44 605.42 4.44ZM623.00 3.92L622.37 3.92L621.15 3.92L621.15 4.19C621.15 4.34 621.25 4.42 621.43 4.44L621.57 4.44C621.64 4.44 621.75 4.45 621.89 4.45C622.03 4.45 622.20 4.47 622.37 4.47L622.37 12.22C622.37 12.35 622.37 12.49 622.38 12.63L615.97 4.05C615.93 3.99 615.90 3.95 615.86 3.93C615.82 3.92 615.78 3.91 615.71 3.91L615.36 3.91L614.17 3.91L614.17 4.19C614.17 4.34 614.26 4.42 614.45 4.44L614.59 4.44C614.66 4.44 614.75 4.45 614.89 4.45C615.03 4.45 615.19 4.47 615.36 4.47L615.36 13.26C615.19 13.26 615.03 13.27 614.89 13.27C614.75 13.27 614.66 13.29 614.59 13.29L614.45 13.29C614.26 13.30 614.17 13.38 614.17 13.54L614.17 13.82L615.36 13.82L615.97 13.82L617.19 13.82L617.19 13.54C617.19 13.38 617.09 13.30 616.91 13.29L616.77 13.29C616.70 13.29 616.57 13.27 616.43 13.27C616.29 13.27 616.14 13.26 615.97 13.26L615.97 5.49C615.97 5.36 615.97 5.22 615.96 5.08L622.40 13.68C622.47 13.78 622.54 13.82 622.65 13.82L623.00 13.82L623.00 4.47C623.17 4.47 623.31 4.45 623.45 4.45C623.59 4.45 623.70 4.44 623.77 4.44L623.90 4.44C624.08 4.42 624.18 4.34 624.18 4.19L624.18 3.92ZM633.40 3.92L632.21 3.92L632.21 4.19C632.21 4.34 632.31 4.42 632.49 4.44L632.63 4.44C632.70 4.44 632.80 4.45 632.94 4.45C633.08 4.45 633.23 4.47 633.40 4.47L633.40 13.26C633.23 13.26 633.08 13.27 632.94 13.27C632.80 13.27 632.70 13.29 632.63 13.29L632.49 13.29C632.31 13.30 632.23 13.38 632.23 13.54L632.23 13.82L633.40 13.82L639.34 13.82L639.34 13.22L639.34 11.76L638.99 11.76C638.79 11.76 638.71 11.89 638.69 12.11C638.69 12.14 638.68 12.19 638.68 12.29C638.68 12.39 638.68 12.53 638.67 12.74C638.65 12.95 638.64 13.09 638.64 13.22L634.12 13.22L634.12 9.09L638.06 9.09L638.06 8.51L634.12 8.51L634.12 4.51L638.64 4.51C638.67 5.12 638.69 5.50 638.69 5.63C638.71 5.85 638.79 5.96 638.99 5.96L639.34 5.96L639.34 4.51L639.34 3.92ZM653.65 9.91C653.51 9.65 653.31 9.39 653.07 9.21C652.83 9.03 652.58 8.88 652.29 8.75C651.99 8.62 651.67 8.51 651.36 8.41C651.06 8.32 650.75 8.20 650.45 8.11C650.16 7.99 649.89 7.87 649.66 7.71C649.42 7.56 649.24 7.38 649.10 7.15C648.96 6.93 648.87 6.65 648.87 6.31C648.87 6.06 648.93 5.82 649.03 5.59C649.12 5.35 649.26 5.15 649.45 4.97C649.63 4.79 649.85 4.65 650.13 4.55C650.41 4.45 650.72 4.40 651.08 4.40C651.76 4.40 652.37 4.51 652.93 4.75C652.97 5.54 653.00 5.99 653.00 6.06C653.02 6.29 653.10 6.41 653.30 6.41L653.63 6.41L653.63 4.38C652.75 4.00 651.91 3.81 651.08 3.81C650.62 3.81 650.22 3.88 649.85 4.02C649.49 4.16 649.19 4.34 648.96 4.58C648.72 4.82 648.52 5.08 648.40 5.39C648.27 5.70 648.21 6.02 648.21 6.36C648.21 6.78 648.28 7.14 648.42 7.42C648.56 7.70 648.76 7.92 649.00 8.12C649.24 8.32 649.49 8.46 649.78 8.58C650.08 8.71 650.40 8.82 650.71 8.92C651.01 9.02 651.31 9.11 651.62 9.21C651.91 9.31 652.18 9.45 652.41 9.60C652.65 9.76 652.83 9.94 652.97 10.16C653.11 10.39 653.18 10.68 653.18 11.03C653.18 11.35 653.13 11.66 653.02 11.94C652.90 12.22 652.75 12.46 652.54 12.67C652.33 12.88 652.06 13.05 651.76 13.16C651.45 13.29 651.10 13.33 650.71 13.33C649.92 13.33 649.26 13.20 648.73 12.95C648.72 12.75 648.72 12.54 648.70 12.32C648.69 12.10 648.69 11.91 648.68 11.76C648.66 11.61 648.66 11.52 648.66 11.51C648.65 11.28 648.55 11.17 648.35 11.17L648.02 11.17L648.02 13.02L648.02 13.20L648.02 13.38C648.87 13.75 649.75 13.93 650.68 13.93C651.18 13.93 651.63 13.85 652.02 13.69C652.41 13.54 652.75 13.31 653.02 13.05C653.28 12.78 653.51 12.46 653.65 12.10C653.79 11.73 653.86 11.34 653.86 10.92C653.86 10.51 653.79 10.18 653.65 9.91ZM667.84 9.91C667.70 9.65 667.51 9.39 667.27 9.21C667.03 9.03 666.78 8.88 666.48 8.75C666.19 8.62 665.87 8.51 665.56 8.41C665.25 8.32 664.94 8.20 664.65 8.11C664.36 7.99 664.09 7.87 663.85 7.71C663.61 7.56 663.43 7.38 663.29 7.15C663.15 6.93 663.07 6.65 663.07 6.31C663.07 6.06 663.12 5.82 663.22 5.59C663.32 5.35 663.46 5.15 663.64 4.97C663.82 4.79 664.05 4.65 664.33 4.55C664.61 4.45 664.92 4.40 665.28 4.40C665.95 4.40 666.57 4.51 667.13 4.75C667.17 5.54 667.20 5.99 667.20 6.06C667.21 6.29 667.30 6.41 667.49 6.41L667.83 6.41L667.83 4.38C666.95 4.00 666.11 3.81 665.28 3.81C664.82 3.81 664.41 3.88 664.05 4.02C663.68 4.16 663.39 4.34 663.15 4.58C662.91 4.82 662.72 5.08 662.59 5.39C662.47 5.70 662.41 6.02 662.41 6.36C662.41 6.78 662.48 7.14 662.62 7.42C662.76 7.70 662.96 7.92 663.19 8.12C663.43 8.32 663.68 8.46 663.98 8.58C664.27 8.71 664.59 8.82 664.90 8.92C665.21 9.02 665.50 9.11 665.81 9.21C666.11 9.31 666.37 9.45 666.61 9.60C666.85 9.76 667.03 9.94 667.17 10.16C667.31 10.39 667.38 10.68 667.38 11.03C667.38 11.35 667.32 11.66 667.21 11.94C667.10 12.22 666.95 12.46 666.74 12.67C666.53 12.88 666.26 13.05 665.95 13.16C665.64 13.29 665.29 13.33 664.90 13.33C664.12 13.33 663.46 13.20 662.93 12.95C662.91 12.75 662.91 12.54 662.90 12.32C662.89 12.10 662.89 11.91 662.87 11.76C662.86 11.61 662.86 11.52 662.86 11.51C662.84 11.28 662.75 11.17 662.55 11.17L662.21 11.17L662.21 13.02L662.21 13.20L662.21 13.38C663.07 13.75 663.95 13.93 664.87 13.93C665.38 13.93 665.83 13.85 666.22 13.69C666.61 13.54 666.95 13.31 667.21 13.05C667.48 12.78 667.70 12.46 667.84 12.10C667.98 11.73 668.05 11.34 668.05 10.92C668.05 10.51 667.98 10.18 667.84 9.91ZM677.43 3.91L676.79 3.91L676.79 7.91L676.79 8.51C676.79 8.69 676.79 8.89 676.80 9.09C676.80 9.28 676.83 9.49 676.84 9.70C676.86 9.91 676.86 10.14 676.87 10.40L677.33 10.40C677.35 10.14 677.36 9.91 677.38 9.70C677.39 9.49 677.40 9.28 677.40 9.09C677.40 8.89 677.43 8.69 677.43 8.51L677.43 7.91ZM676.44 13.27C676.44 13.45 676.49 13.61 676.62 13.73C676.75 13.86 676.90 13.92 677.08 13.92C677.17 13.92 677.25 13.90 677.33 13.87C677.42 13.85 677.49 13.79 677.54 13.73C677.60 13.68 677.66 13.62 677.68 13.54C677.71 13.45 677.74 13.37 677.74 13.27C677.74 13.19 677.71 13.10 677.68 13.02C677.66 12.94 677.60 12.88 677.54 12.82C677.49 12.77 677.42 12.71 677.33 12.68C677.25 12.66 677.17 12.63 677.08 12.63C676.98 12.63 676.91 12.66 676.83 12.68C676.75 12.71 676.68 12.77 676.62 12.82C676.56 12.88 676.51 12.94 676.48 13.02C676.45 13.10 676.44 13.19 676.44 13.27Z"></path></g></svg>