<svg data-v-423bf9ae="" xmlns="http://www.w3.org/2000/svg" viewBox="0 0 308 90" class="iconLeft"><!----><!----><!----><g data-v-423bf9ae="" id="c25bc53f-0aa1-421f-89a8-753e5b91a50f" fill="#F2B16E" transform="matrix(4.120879173278809,0,0,4.120879173278809,150.6541748046875,16.442306518554688)"><path d="M3.26 10.50L3.26 10.50Q2.59 10.50 1.86 10.06L1.86 10.06L1.86 10.06Q1.13 9.62 0.66 8.97L0.66 8.97L0.66 8.97Q0.18 8.33 0.18 7.76L0.18 7.76L0.18 7.76Q0.18 6.73 0.67 5.52L0.67 5.52L0.67 5.52Q1.15 4.30 2.00 3.45L2.00 3.45L2.00 3.45Q2.86 2.60 3.93 2.60L3.93 2.60L3.93 2.60Q4.70 2.60 5.33 2.94L5.33 2.94L5.33 2.94Q5.95 3.28 6.30 3.78L6.30 3.78L6.30 3.78Q6.65 4.28 6.65 4.76L6.65 4.76L6.65 4.76Q6.65 5.35 6.12 5.92L6.12 5.92L6.12 5.92Q5.59 6.48 4.63 6.91L4.63 6.91L4.63 6.91Q3.68 7.34 2.46 7.52L2.46 7.52L2.46 7.52Q2.45 7.69 2.45 8.02L2.45 8.02L2.45 8.02Q2.45 8.44 2.48 8.65L2.48 8.65L2.48 8.65Q3.18 8.58 3.86 8.27L3.86 8.27L3.86 8.27Q4.55 7.97 5.36 7.41L5.36 7.41L5.36 7.41Q5.91 7.57 6.19 7.94L6.19 7.94L6.19 7.94Q6.47 8.30 6.47 8.81L6.47 8.81L6.47 8.81Q6.47 9.23 5.96 9.63L5.96 9.63L5.96 9.63Q5.45 10.02 4.69 10.26L4.69 10.26L4.69 10.26Q3.93 10.50 3.26 10.50L3.26 10.50ZM2.67 6.47L2.67 6.47Q3.53 6.16 4.10 5.68L4.10 5.68L4.10 5.68Q4.68 5.21 4.68 4.87L4.68 4.87L4.68 4.87Q4.68 4.48 4.13 4.34L4.13 4.34L4.13 4.34Q3.60 4.73 3.23 5.28L3.23 5.28L3.23 5.28Q2.86 5.82 2.67 6.47L2.67 6.47ZM11.79 4.19L11.79 4.19Q11.90 3.49 11.90 3.07L11.90 3.07L11.90 3.07Q11.90 2.77 11.85 2.60L11.85 2.60L11.85 2.60Q11.80 2.44 11.73 2.44L11.73 2.44L11.73 2.44Q11.52 2.44 11.25 2.79L11.25 2.79L11.25 2.79Q10.98 3.14 10.79 3.62L10.79 3.62L10.79 3.62Q10.60 4.10 10.60 4.48L10.60 4.48L10.60 4.48Q10.60 4.96 11.07 5.44L11.07 5.44L11.07 5.44Q11.54 5.92 12.45 6.62L12.45 6.62L12.45 6.62Q13.13 7.13 13.47 7.46L13.47 7.46L13.47 7.46Q13.80 7.78 13.82 8.05L13.82 8.05L13.82 8.05Q13.83 8.64 13.20 9.21L13.20 9.21L13.20 9.21Q12.57 9.77 11.63 10.14L11.63 10.14L11.63 10.14Q10.68 10.50 9.87 10.50L9.87 10.50L9.87 10.50Q9.24 10.50 8.57 10.19L8.57 10.19L8.57 10.19Q7.90 9.87 7.45 9.44L7.45 9.44L7.45 9.44Q7 9.02 6.99 8.69L6.99 8.69L6.99 8.69Q6.96 8.08 7.39 7.69L7.39 7.69L7.39 7.69Q7.83 7.31 8.55 7.31L8.55 7.31L8.55 7.31Q8.92 7.31 9.30 7.41L9.30 7.41L9.30 7.41Q9.46 8.33 9.59 8.74L9.59 8.74L9.59 8.74Q10.42 8.53 11.38 8.01L11.38 8.01L11.38 8.01Q8.26 5.64 8.26 4.31L8.26 4.31L8.26 4.31Q8.26 3.67 8.74 2.76L8.74 2.76L8.74 2.76Q9.21 1.86 10.00 1.21L10.00 1.21L10.00 1.21Q10.78 0.56 11.65 0.56L11.65 0.56L11.65 0.56Q12.29 0.56 12.89 0.99L12.89 0.99L12.89 0.99Q13.50 1.43 13.87 2.06L13.87 2.06L13.87 2.06Q14.25 2.69 14.25 3.23L14.25 3.23L14.25 3.23Q14.25 3.77 13.82 4.08L13.82 4.08L13.82 4.08Q13.40 4.40 12.77 4.40L12.77 4.40L12.77 4.40Q12.28 4.40 11.79 4.19L11.79 4.19ZM16.91 7.56L16.91 7.56Q16.87 8.65 16.70 9.58L16.70 9.58L16.70 9.58Q16.53 10.50 16.24 10.50L16.24 10.50L16.24 10.50Q15.89 10.50 15.43 10.26L15.43 10.26L15.43 10.26Q14.97 10.02 14.64 9.70L14.64 9.70L14.64 9.70Q14.31 9.37 14.31 9.13L14.31 9.13L14.31 9.13Q14.31 8.96 14.42 8.55L14.42 8.55L14.42 8.55Q14.53 8.13 14.69 7.63L14.69 7.63L14.69 7.63Q15.23 5.84 15.54 4.42L15.54 4.42L15.54 4.42Q15.71 3.64 15.83 2.80L15.83 2.80L15.83 2.80Q16.03 1.68 16.17 1.08L16.17 1.08L16.17 1.08Q16.31 0.48 16.53 0.06L16.53 0.06L16.53 0.06Q16.74-0.35 17.07-0.35L17.07-0.35L17.07-0.35Q17.30-0.35 17.77-0.06L17.77-0.06L17.77-0.06Q18.24 0.22 18.61 0.60L18.61 0.60L18.61 0.60Q18.97 0.97 18.97 1.20L18.97 1.20L18.97 1.20Q18.97 1.41 18.82 1.67L18.82 1.67L18.82 1.67Q18.68 1.93 18.34 2.41L18.34 2.41L18.34 2.41Q18.27 2.51 18.08 2.80L18.08 2.80L18.08 2.80Q17.89 3.09 17.81 3.29L17.81 3.29L17.81 3.29Q17.64 3.70 17.44 4.33L17.44 4.33L17.44 4.33Q17.23 4.96 17.09 5.56L17.09 5.56L17.35 5.70L17.35 5.70Q18.26 4.47 18.94 3.72L18.94 3.72L18.94 3.72Q19.61 2.98 19.99 2.98L19.99 2.98L19.99 2.98Q20.26 2.98 20.64 3.25L20.64 3.25L20.64 3.25Q21.01 3.51 21.29 3.86L21.29 3.86L21.29 3.86Q21.57 4.20 21.57 4.38L21.57 4.38L21.57 4.38Q21.56 4.63 21.41 5.10L21.41 5.10L21.41 5.10Q21.27 5.57 20.96 6.41L20.96 6.41L20.96 6.41Q20.57 7.42 20.26 8.39L20.26 8.39L20.26 8.39Q20.69 8.22 20.99 8.05L20.99 8.05L20.99 8.05Q21.28 7.88 21.67 7.59L21.67 7.59L21.67 7.59Q22.26 7.84 22.53 8.22L22.53 8.22L22.53 8.22Q22.81 8.60 22.78 9.14L22.78 9.14L22.78 9.14Q22.78 9.48 22.27 9.79L22.27 9.79L22.27 9.79Q21.76 10.09 21.09 10.30L21.09 10.30L21.09 10.30Q20.43 10.50 20.03 10.50L20.03 10.50L20.03 10.50Q19.71 10.50 19.29 10.25L19.29 10.25L19.29 10.25Q18.87 10.00 18.56 9.67L18.56 9.67L18.56 9.67Q18.26 9.34 18.27 9.16L18.27 9.16L18.27 9.16Q18.27 9.04 18.41 8.62L18.41 8.62L18.41 8.62Q18.55 8.19 18.59 8.04L18.59 8.04L18.59 8.04Q18.86 7.20 18.99 6.70L18.99 6.70L18.99 6.70Q19.12 6.20 19.12 5.96L19.12 5.96L19.12 5.96Q19.12 5.80 19.05 5.80L19.05 5.80L19.05 5.80Q18.75 5.80 18.13 6.33L18.13 6.33L18.13 6.33Q17.51 6.86 16.91 7.56L16.91 7.56ZM26.56 2.59L26.56 2.59Q27.55 2.70 28.37 3.18L28.37 3.18L28.37 3.18Q29.19 3.67 29.65 4.34L29.65 4.34L29.65 4.34Q30.11 5.01 30.11 5.68L30.11 5.68L30.11 5.68Q30.11 6.69 29.60 7.83L29.60 7.83L29.60 7.83Q29.08 8.96 28.15 9.73L28.15 9.73L28.15 9.73Q27.23 10.50 26.10 10.50L26.10 10.50L26.10 10.50Q25.54 10.50 24.91 10.09L24.91 10.09L24.91 10.09Q24.28 9.67 23.85 9.08L23.85 9.08L23.85 9.08Q23.42 8.48 23.42 8.02L23.42 8.02L23.42 8.02Q23.42 7.17 23.63 6.26L23.63 6.26L23.63 6.26Q23.84 5.36 24.28 4.51L24.28 4.51L24.28 4.51Q24.68 4.28 25.09 4.28L25.09 4.28L25.09 4.28Q25.27 4.28 25.42 4.33L25.42 4.33L25.42 4.33Q25.37 4.16 25.37 3.93L25.37 3.93L25.37 3.93Q25.37 3.49 25.68 3.12L25.68 3.12L25.68 3.12Q26.00 2.76 26.56 2.59L26.56 2.59ZM25.59 8.90L25.59 8.90Q26.75 8.51 27.40 7.56L27.40 7.56L27.40 7.56Q28.04 6.61 28.25 5.29L28.25 5.29L28.25 5.29Q27.62 4.84 26.54 4.84L26.54 4.84L26.54 4.84Q26.28 4.84 26.14 4.86L26.14 4.86L26.14 4.86Q26.29 5.14 26.29 5.49L26.29 5.49L26.29 5.49Q25.93 6.06 25.73 6.75L25.73 6.75L25.73 6.75Q25.54 7.45 25.54 8.15L25.54 8.15L25.54 8.15Q25.54 8.57 25.59 8.90L25.59 8.90ZM35.63 2.84L35.63 2.84Q36.37 2.84 36.95 3.19L36.95 3.19L36.95 3.19Q37.52 3.54 37.84 4.15L37.84 4.15L37.84 4.15Q38.15 4.76 38.15 5.52L38.15 5.52L38.15 5.52Q38.15 6.64 37.51 7.80L37.51 7.80L37.51 7.80Q36.88 8.97 35.85 9.74L35.85 9.74L35.85 9.74Q34.82 10.50 33.71 10.50L33.71 10.50L33.71 10.50Q33.24 10.50 32.76 10.12L32.76 10.12L32.76 10.12Q32.59 10.82 32.50 11.56L32.50 11.56L32.50 11.56Q32.41 12.29 32.40 12.42L32.40 12.42L32.40 12.42Q32.28 13.37 32.18 13.79L32.18 13.79L32.18 13.79Q32.07 14.21 31.85 14.21L31.85 14.21L31.85 14.21Q31.49 14.21 31.05 13.97L31.05 13.97L31.05 13.97Q30.60 13.73 30.29 13.41L30.29 13.41L30.29 13.41Q29.97 13.08 29.97 12.84L29.97 12.84L29.97 12.84Q29.97 12.57 30.21 11.66L30.21 11.66L30.21 11.66Q30.45 10.75 30.94 9.03L30.94 9.03L30.94 9.03Q31.37 7.49 31.61 6.61L31.61 6.61L31.61 6.61Q31.85 5.73 31.85 5.49L31.85 5.49L31.85 5.49Q31.85 5.38 31.73 5.26L31.73 5.26L31.73 5.26Q31.61 5.14 31.35 4.91L31.35 4.91L31.35 4.91Q31.05 4.68 30.91 4.54L30.91 4.54L30.91 4.54Q30.77 4.40 30.77 4.24L30.77 4.24L30.77 4.24Q30.77 3.95 31.05 3.56L31.05 3.56L31.05 3.56Q31.32 3.16 31.69 2.88L31.69 2.88L31.69 2.88Q32.06 2.60 32.33 2.60L32.33 2.60L32.33 2.60Q32.73 2.60 33.25 3.05L33.25 3.05L33.25 3.05Q33.77 3.50 33.99 3.95L33.99 3.95L34.54 3.02L34.54 3.02Q35.08 2.84 35.63 2.84L35.63 2.84ZM33.71 8.71L33.71 8.71Q34.16 8.71 34.69 8.24L34.69 8.24L34.69 8.24Q35.22 7.77 35.59 7.08L35.59 7.08L35.59 7.08Q35.95 6.38 35.95 5.75L35.95 5.75L35.95 5.75Q35.95 5.29 35.73 5.04L35.73 5.04L35.73 5.04Q35.50 4.79 35.08 4.79L35.08 4.79L35.08 4.79Q34.59 4.79 34.20 5.34L34.20 5.34L34.20 5.34Q33.80 5.89 33.56 6.69L33.56 6.69L33.56 6.69Q33.33 7.49 33.33 8.16L33.33 8.16L33.33 8.16Q33.33 8.43 33.44 8.57L33.44 8.57L33.44 8.57Q33.54 8.71 33.71 8.71L33.71 8.71Z"></path></g><!----><g data-v-423bf9ae="" id="2565ae10-ee7e-43c5-b580-e89ff8f826db" transform="matrix(2.7374541759490967,0,0,2.7374541759490967,0.300385445356369,-20.138179779052734)" stroke="none" fill="#F2B16E"><g color="#000" font-weight="400" font-family="sans-serif" white-space="normal"><path style="line-height:normal;text-indent:0;text-align:start;text-decoration-line:none;text-decoration-style:solid;text-decoration-color:#000;text-transform:none;block-progression:tb;isolation:auto;mix-blend-mode:normal" d="M.91 19.683a.533.533 0 0 0-.506.5l-.402 6.459a.533.533 0 0 0 .51.566l22.027.89a.533.533 0 0 0 .553-.49l.496-6.236a.533.533 0 0 0-.506-.576L.965 19.683a.533.533 0 0 0-.055 0zm.527 1.094l21.043 1.058-.41 5.178-20.97-.85.337-5.386z" overflow="visible"></path><path style="line-height:normal;text-indent:0;text-align:start;text-decoration-line:none;text-decoration-style:solid;text-decoration-color:#000;text-transform:none;block-progression:tb;isolation:auto;mix-blend-mode:normal" d="M11.973 20.357a.532.532 0 0 0-.547.52L10.7 39.694c-.028.711 1.04.754 1.067.043l.727-18.817a.533.533 0 0 0-.52-.563z" overflow="visible"></path><path style="line-height:normal;text-indent:0;text-align:start;text-decoration-line:none;text-decoration-style:solid;text-decoration-color:#000;text-transform:none;block-progression:tb;isolation:auto;mix-blend-mode:normal" d="M43.528 16.575a.534.534 0 0 0-.516.549l.424 21.961-40.786.283.228-12.534c.027-.725-1.067-.744-1.066-.02l-.238 13.082a.533.533 0 0 0 .535.543l41.873-.29a.532.532 0 0 0 .53-.542l-.433-22.5a.533.533 0 0 0-.551-.531z" overflow="visible"></path><path style="line-height:normal;text-indent:0;text-align:start;text-decoration-line:none;text-decoration-style:solid;text-decoration-color:#000;text-transform:none;block-progression:tb;isolation:auto;mix-blend-mode:normal" d="M20.252 26.982a.533.533 0 0 0-.518.548l.182 12.25a.533.533 0 1 0 1.066-.016l-.181-12.252a.533.533 0 0 0-.549-.53zM30.854 10.331a.533.533 0 0 0-.506.56c.346 9.653.335 19.297.324 28.725a.533.533 0 1 0 1.066 0c.011-9.428.024-19.085-.324-28.763a.533.533 0 0 0-.56-.522z" overflow="visible"></path><path style="line-height:normal;text-indent:0;text-align:start;text-decoration-line:none;text-decoration-style:solid;text-decoration-color:#000;text-transform:none;block-progression:tb;isolation:auto;mix-blend-mode:normal" d="M43.803 33.034c-14.203.245-27.716-.14-41.614.19a.533.533 0 1 0 .026 1.066c13.861-.33 27.374.056 41.607-.19a.533.533 0 1 0-.02-1.066zM17.671 16.108a.533.533 0 0 0-.533.533l-.077 4.32c-.027.725 1.07.742 1.066.015l.077-4.319a.533.533 0 0 0-.533-.549z" overflow="visible"></path><path style="line-height:normal;text-indent:0;text-align:start;text-decoration-line:none;text-decoration-style:solid;text-decoration-color:#000;text-transform:none;block-progression:tb;isolation:auto;mix-blend-mode:normal" d="M14.164 10.105a.53.53 0 0 0-.543.54l-.02 6.071c.004.33.304.577.628.518l3.476-.137 29.213.49a.537.537 0 0 0 .539-.484l.541-5.881a.533.533 0 0 0-.523-.582zm.531 1.076l32.188.515-.442 4.815-28.771-.48c-.035 0-.07 0-.104.01l-2.907.03.036-4.888z" overflow="visible"></path><path style="line-height:normal;text-indent:0;text-align:start;text-decoration-line:none;text-decoration-style:solid;text-decoration-color:#000;text-transform:none;block-progression:tb;isolation:auto;mix-blend-mode:normal" d="M33.717 7.562a.533.533 0 0 0-.367.16l-2.51 2.502-3.71-2.37a.533.533 0 1 0-.573.899l4.068 2.6a.533.533 0 0 0 .664-.072l2.815-2.803a.533.533 0 0 0-.387-.916z" overflow="visible"></path></g></g><!----></svg>