<svg data-v-423bf9ae="" xmlns="http://www.w3.org/2000/svg" viewBox="0 0 165.76160916298934 60" class="font"><!----><!----><!----><g data-v-423bf9ae="" id="8a150144-b386-4b61-a9f9-b252a8d8cc5e" fill="black" transform="matrix(4.516664981842041,0,0,4.516664981842041,-2.39384126663208,-21.616134643554688)"><path d="M6.48 13.06C6.17 13.72 5.46 14.17 4.44 14.17C3.25 14.17 2.44 13.57 2.31 11.79C2.80 11.84 3.26 11.86 3.72 11.86C5.57 11.86 6.79 11.12 6.79 9.73C6.79 8.34 5.59 7.64 4.02 7.64C1.75 7.64 0.53 9.09 0.53 11.42C0.53 13.86 1.88 15.22 3.99 15.22C5.26 15.22 6.24 14.73 6.59 13.83C6.80 13.34 6.66 13.15 6.48 13.06ZM3.96 8.23C4.49 8.23 5.03 8.48 5.03 9.46C5.03 11.03 3.84 11.24 2.84 11.23C2.65 11.23 2.45 11.21 2.28 11.20C2.28 9.32 2.91 8.23 3.96 8.23ZM10.40 15.22C12.74 15.22 13.54 14.10 13.54 13.03C13.54 11.75 12.29 11.20 11.20 10.68C10.29 10.23 9.46 9.87 9.46 9.06C9.46 8.47 10.02 8.23 10.64 8.23C11.33 8.23 11.77 8.54 11.90 9.03C12.00 9.24 12.01 9.53 11.98 9.77C12.14 9.80 12.26 9.81 12.45 9.80C13.02 9.77 13.23 9.39 13.23 9.00C13.23 8.09 12.21 7.63 10.70 7.63C9.25 7.63 7.99 8.19 7.99 9.60C7.99 11.09 9.18 11.62 10.26 12.14C11.16 12.56 12.01 12.87 12.01 13.65C12.01 14.29 11.41 14.59 10.61 14.59C9.59 14.59 9.07 14.01 8.99 13.36C8.93 13.12 8.93 12.89 8.99 12.66C8.04 12.50 7.74 13.08 7.74 13.57C7.74 14.50 8.58 15.22 10.40 15.22ZM20.96 13.13L20.96 10.49C20.96 8.60 20.24 7.64 18.70 7.64C17.64 7.64 16.91 8.18 16.52 9.11L16.52 8.12C16.53 6.85 16.58 5.91 16.81 5.14C16.66 5.01 16.21 4.75 15.71 4.79C15.25 4.82 14.91 5.08 14.92 5.64L14.92 14.27C14.92 14.85 15.34 15.22 15.88 15.22C16.34 15.22 16.66 14.99 16.81 14.85C16.53 14.18 16.53 13.68 16.53 11.70C16.53 9.45 17.29 8.43 18.17 8.43C19.08 8.43 19.33 9.25 19.33 10.72L19.33 14.35C19.33 14.88 19.73 15.22 20.27 15.22C20.69 15.22 20.99 15.04 21.20 14.84C21 14.29 20.96 13.58 20.96 13.13ZM25.77 15.22C27.90 15.22 29.15 13.80 29.15 11.44C29.15 9.04 27.90 7.64 25.77 7.64C23.65 7.64 22.41 9.04 22.41 11.44C22.41 13.80 23.65 15.22 25.77 15.22ZM25.77 14.62C24.70 14.62 24.16 13.52 24.16 11.44C24.16 9.32 24.70 8.23 25.77 8.23C26.85 8.23 27.38 9.32 27.38 11.44C27.38 13.52 26.85 14.62 25.77 14.62ZM34.75 7.64C33.59 7.64 32.79 8.30 32.37 9.52C32.28 8.39 31.85 7.70 31.00 7.70C30.38 7.70 29.95 8.05 29.95 8.55C29.95 8.71 30.00 8.92 30.11 9.10C30.21 8.96 30.38 8.93 30.49 8.93C30.74 8.93 30.86 9.14 30.86 9.65L30.84 17.23C30.84 17.77 31.26 18.07 31.79 18.07C32.26 18.07 32.59 17.85 32.73 17.72C32.51 16.94 32.47 15.88 32.47 15.26L32.47 14.29C32.75 14.90 33.36 15.22 34.23 15.22C36.08 15.22 37.23 13.78 37.23 11.14C37.23 9.37 36.67 7.64 34.75 7.64ZM33.82 14.35C32.80 14.35 32.49 13.51 32.49 12.11C32.49 10.35 33.07 8.54 34.27 8.54C35.28 8.54 35.49 9.67 35.49 11.13C35.49 13.20 34.97 14.35 33.82 14.35Z"></path></g><!----><!----></svg>